<?xml version="1.0" encoding="UTF-8" standalone="no"?>
<svg
   xmlns:dc="http://purl.org/dc/elements/1.1/"
   xmlns:cc="http://creativecommons.org/ns#"
   xmlns:rdf="http://www.w3.org/1999/02/22-rdf-syntax-ns#"
   xmlns:svg="http://www.w3.org/2000/svg"
   xmlns="http://www.w3.org/2000/svg"
   xmlns:sodipodi="http://sodipodi.sourceforge.net/DTD/sodipodi-0.dtd"
   xmlns:inkscape="http://www.inkscape.org/namespaces/inkscape"
   version="1.0"
   x="0px"
   y="0px"
   width="100px"
   height="71.937px"
   viewBox="0 0 100 71.937"
   overflow="visible"
   enable-background="new 0 0 100 71.937"
   xml:space="preserve"
   id="svg2"
   inkscape:version="0.48.3.1 r9886"
   sodipodi:docname="bargraph.svg"><metadata
   id="metadata16"><rdf:RDF><cc:Work
       rdf:about=""><dc:format>image/svg+xml</dc:format><dc:type
         rdf:resource="http://purl.org/dc/dcmitype/StillImage" /><dc:title /></cc:Work></rdf:RDF></metadata><defs
   id="defs14" /><sodipodi:namedview
   pagecolor="#ffffff"
   bordercolor="#666666"
   borderopacity="1"
   objecttolerance="10"
   gridtolerance="10"
   guidetolerance="10"
   inkscape:pageopacity="0"
   inkscape:pageshadow="2"
   inkscape:window-width="1908"
   inkscape:window-height="1024"
   id="namedview12"
   showgrid="false"
   inkscape:zoom="9.2790752"
   inkscape:cx="53.242293"
   inkscape:cy="51.343504"
   inkscape:window-x="1920"
   inkscape:window-y="25"
   inkscape:window-maximized="1"
   inkscape:current-layer="svg2" />
    <path
   d="m 100,61.624 v 10.313 h -3.72 v -6.642 h -9.195 v 6.642 h -3.717 v -6.642 h -9.346 v 6.642 H 69.9 v -6.642 h -9.345 v 6.642 H 56.842 V 65.295 H 47.49 v 6.642 H 43.783 V 65.295 H 34.44 v 6.642 H 30.728 V 65.295 H 21.37 v 6.642 H 17.649 V 65.295 H 6.604 V 55.952 H 0 V 52.236 H 6.604 V 42.887 H 0 V 39.18 H 6.604 V 29.835 H 0 V 26.12 H 6.604 V 16.771 H 0 V 13.062 H 6.604 V 3.716 H 0 V 0 h 10.319 v 61.588 h 89.267 v 0.036 z"
   id="path4"
   inkscape:connector-curvature="0"
   style="fill:#4d4d4d;fill-opacity:1" />
    <rect
   x="17.649"
   y="39.181"
   width="16.792"
   height="19.064"
   id="rect6"
   style="fill:#7fae00;fill-opacity:1" />
    <rect
   x="43.784"
   y="19.222761"
   width="16.792"
   height="23.073372"
   id="rect8"
   style="fill:#eaa228;fill-opacity:1" />
    <rect
   x="69.900002"
   y="9.4837046"
   width="16.791"
   height="48.762295"
   id="rect10"
   style="fill:#d5383b;fill-opacity:1" />
<rect
   x="17.684183"
   y="29.147198"
   width="16.792"
   height="10.141048"
   id="rect8-0"
   style="fill:#eaa228;fill-opacity:1" /><rect
   x="17.684681"
   y="13.500731"
   width="16.791"
   height="16.00041"
   id="rect10-2"
   style="fill:#d5383b;fill-opacity:1" /><rect
   x="43.76437"
   y="30.828573"
   width="16.792"
   height="27.362238"
   id="rect6-6"
   style="fill:#7fae00;fill-opacity:1" /><rect
   x="43.764874"
   y="0.56840724"
   width="16.791"
   height="23.436497"
   id="rect10-1"
   style="fill:#d5383b;fill-opacity:1" /><rect
   x="69.854378"
   y="23.031933"
   width="16.792"
   height="26.090916"
   id="rect8-5"
   style="fill:#eaa228;fill-opacity:1" /><rect
   x="69.834747"
   y="33.344517"
   width="16.792"
   height="24.775778"
   id="rect6-6-9"
   style="fill:#7fae00;fill-opacity:1" /></svg>