<?xml version="1.0" encoding="UTF-8" standalone="no"?>
<svg
   xmlns:dc="http://purl.org/dc/elements/1.1/"
   xmlns:cc="http://creativecommons.org/ns#"
   xmlns:rdf="http://www.w3.org/1999/02/22-rdf-syntax-ns#"
   xmlns:svg="http://www.w3.org/2000/svg"
   xmlns="http://www.w3.org/2000/svg"
   xmlns:sodipodi="http://sodipodi.sourceforge.net/DTD/sodipodi-0.dtd"
   xmlns:inkscape="http://www.inkscape.org/namespaces/inkscape"
   version="1.0"
   x="0px"
   y="0px"
   width="100px"
   height="71.937px"
   viewBox="0 0 100 71.937"
   overflow="visible"
   enable-background="new 0 0 100 71.937"
   xml:space="preserve"
   id="svg2"
   inkscape:version="0.48.3.1 r9886"
   sodipodi:docname="linegraph.svg"><metadata
   id="metadata10"><rdf:RDF><cc:Work
       rdf:about=""><dc:format>image/svg+xml</dc:format><dc:type
         rdf:resource="http://purl.org/dc/dcmitype/StillImage" /></cc:Work></rdf:RDF></metadata><defs
   id="defs8" /><sodipodi:namedview
   pagecolor="#f2f2f2"
   bordercolor="#666666"
   borderopacity="1"
   objecttolerance="10"
   gridtolerance="10"
   guidetolerance="10"
   inkscape:pageopacity="1"
   inkscape:pageshadow="2"
   inkscape:window-width="1908"
   inkscape:window-height="1024"
   id="namedview6"
   showgrid="false"
   inkscape:zoom="6.561297"
   inkscape:cx="48.305912"
   inkscape:cy="37.001353"
   inkscape:window-x="1920"
   inkscape:window-y="25"
   inkscape:window-maximized="1"
   inkscape:current-layer="svg2" />
    <path
   d="m 0,0 0,3.71875 6.59375,0 0,9.34375 -6.59375,0 0,3.71875 6.59375,0 0,9.34375 -6.59375,0 0,3.71875 6.59375,0 0,9.34375 -6.59375,0 0,3.6875 6.59375,0 0,9.375 -6.59375,0 0,3.6875 6.59375,0 0,9.34375 11.0625,0 0,6.65625 3.71875,0 0,-6.65625 9.34375,0 0,6.65625 3.71875,0 0,-6.65625 9.34375,0 0,6.65625 3.71875,0 0,-6.65625 9.34375,0 0,6.65625 3.71875,0 0,-6.65625 9.34375,0 0,6.65625 3.6875,0 0,-6.65625 9.375,0 0,6.65625 3.6875,0 0,-6.65625 9.21875,0 0,6.65625 3.71875,0 0,-10.3125 0,-0.03125 -89.28125,0 L 10.3125,0 0,0 z m 91.9375,0.96875 c -4.336,-0.029 -7.87825,3.4725 -7.90625,7.8125 -0.01,0.61 0.0775,1.178 0.1875,1.75 l -13.375,11.875 C 68.28175,21.40125 65.269,21.777 63,23.625 L 50.1875,18.15625 c -0.053,-1.037 -0.29925,-2.0735 -0.78125,-3.0625 -1.912,-3.894 -6.607,-5.53 -10.5,-3.625 -3.899,1.912 -5.49375,6.63625 -3.59375,10.53125 0.151,0.326 0.33125,0.61325 0.53125,0.90625 L 27.5,38.46875 c -2.94,0.136 -5.69525,1.9135 -6.90625,4.8125 -1.685,4 0.22175,8.60525 4.21875,10.28125 4.012,1.673 8.60525,-0.21575 10.28125,-4.21875 1.021,-2.439 0.70125,-5.1005 -0.59375,-7.1875 L 42.96875,26.375 c 0.958,-0.075 1.92675,-0.33825 2.84375,-0.78125 0.256,-0.131 0.47175,-0.25825 0.71875,-0.40625 L 60.25,31.0625 c 0.246,1.351 0.802,2.636 1.75,3.75 2.847,3.288 7.79775,3.67875 11.09375,0.84375 2.099,-1.807 3.02325,-4.5085 2.65625,-7.0625 l 13.84375,-12.25 c 0.716,0.212 1.45975,0.33475 2.21875,0.34375 4.352,0.034 7.9015,-3.44225 7.9375,-7.78125 0.038,-4.334 -3.4775,-7.9055 -7.8125,-7.9375 z"
   id="path2987"
   style="fill:#4d4d4d;fill-opacity:1"
   inkscape:original="M 0 0 L 0 3.71875 L 6.59375 3.71875 L 6.59375 13.0625 L 0 13.0625 L 0 16.78125 L 6.59375 16.78125 L 6.59375 26.125 L 0 26.125 L 0 29.84375 L 6.59375 29.84375 L 6.59375 39.1875 L 0 39.1875 L 0 42.875 L 6.59375 42.875 L 6.59375 52.25 L 0 52.25 L 0 55.9375 L 6.59375 55.9375 L 6.59375 65.28125 L 17.65625 65.28125 L 17.65625 71.9375 L 21.375 71.9375 L 21.375 65.28125 L 30.71875 65.28125 L 30.71875 71.9375 L 34.4375 71.9375 L 34.4375 65.28125 L 43.78125 65.28125 L 43.78125 71.9375 L 47.5 71.9375 L 47.5 65.28125 L 56.84375 65.28125 L 56.84375 71.9375 L 60.5625 71.9375 L 60.5625 65.28125 L 69.90625 65.28125 L 69.90625 71.9375 L 73.59375 71.9375 L 73.59375 65.28125 L 82.96875 65.28125 L 82.96875 71.9375 L 86.65625 71.9375 L 86.65625 65.28125 L 95.875 65.28125 L 95.875 71.9375 L 99.59375 71.9375 L 99.59375 61.625 L 99.59375 61.59375 L 10.3125 61.59375 L 10.3125 0 L 0 0 z M 91.9375 0.96875 C 87.6015 0.93975 84.05925 4.44125 84.03125 8.78125 C 84.02125 9.39125 84.10875 9.95925 84.21875 10.53125 L 70.84375 22.40625 C 68.28175 21.40125 65.269 21.777 63 23.625 L 50.1875 18.15625 C 50.1345 17.11925 49.88825 16.08275 49.40625 15.09375 C 47.49425 11.19975 42.79925 9.56375 38.90625 11.46875 C 35.00725 13.38075 33.4125 18.105 35.3125 22 C 35.4635 22.326 35.64375 22.61325 35.84375 22.90625 L 27.5 38.46875 C 24.56 38.60475 21.80475 40.38225 20.59375 43.28125 C 18.90875 47.28125 20.8155 51.8865 24.8125 53.5625 C 28.8245 55.2355 33.41775 53.34675 35.09375 49.34375 C 36.11475 46.90475 35.795 44.24325 34.5 42.15625 L 42.96875 26.375 C 43.92675 26.3 44.8955 26.03675 45.8125 25.59375 C 46.0685 25.46275 46.28425 25.3355 46.53125 25.1875 L 60.25 31.0625 C 60.496 32.4135 61.052 33.6985 62 34.8125 C 64.847 38.1005 69.79775 38.49125 73.09375 35.65625 C 75.19275 33.84925 76.117 31.14775 75.75 28.59375 L 89.59375 16.34375 C 90.30975 16.55575 91.0535 16.6785 91.8125 16.6875 C 96.1645 16.7215 99.714 13.24525 99.75 8.90625 C 99.788 4.57225 96.2725 1.00075 91.9375 0.96875 z "
   inkscape:radius="0"
   sodipodi:type="inkscape:offset" />
<rect
   style="fill:#f2f2f2;fill-opacity:1;stroke:none"
   id="rect2989"
   width="89.51619"
   height="61.183678"
   x="10.27824"
   y="0.27037182"
   ry="0" /><path
   style="fill:#ffffff;fill-opacity:1;stroke:none"
   id="path3765"
   d="m 21.395661,36.518415 c 0.150274,-0.425231 0.430322,-0.77146 0.74414,-1.086709 0.808713,-0.697009 1.794208,-1.182376 2.710707,-1.70783 -2.222366,1.187773 -1.259963,0.796267 -0.852995,0.453469 0.145846,-0.12285 0.260164,-0.267714 0.374174,-0.419055 0.277179,-0.411758 0.465009,-0.8732 0.669636,-1.322961 0.27086,-0.587717 0.605169,-1.140108 0.9677,-1.674763 0.283615,-0.435574 0.629146,-0.817155 1.017225,-1.160252 0.317571,-0.258667 0.644851,-0.504641 0.956626,-0.770434 0.233369,-0.205677 0.461677,-0.41779 0.675487,-0.643839 0.539991,-0.62571 1.270428,-0.894 2.005988,-1.314584 0.483801,-0.25666 0.99163,-0.463124 1.50113,-0.662729 0.731888,-0.278158 1.47252,-0.535609 2.197144,-0.832446 0.760661,-0.298136 1.508159,-0.628976 2.254823,-0.96027 0.42079,-0.181291 0.222339,-0.08979 0.596561,-0.271873 0,0 -1.225642,0.975622 -1.225642,0.975622 l 0,0 c -0.367696,0.167037 -0.173368,0.08111 -0.583558,0.256472 -0.750864,0.327198 -1.498219,0.663257 -2.26201,0.959659 -0.729107,0.287944 -1.468354,0.549969 -2.199167,0.833681 -0.515308,0.210523 -1.028352,0.427735 -1.516443,0.696867 0.403989,-0.234797 0.807978,-0.469594 1.211967,-0.704391 -0.05131,0.02746 -0.190541,0.09874 -0.240095,0.137034 -0.100556,0.07772 -0.177436,0.186397 -0.273634,0.269008 -0.202197,0.242349 -0.442517,0.449983 -0.672524,0.665326 -0.310469,0.2722 -0.636333,0.524977 -0.965789,0.773725 -0.392535,0.335264 -0.760576,0.692739 -1.044741,1.128425 -0.364115,0.526326 -0.709526,1.064266 -0.975728,1.64848 -0.204925,0.452044 -0.384594,0.917745 -0.644235,1.342705 -0.536282,0.839096 -1.277773,1.050107 -2.196904,1.585101 2.411322,-1.403138 0.456539,-0.31127 -0.03317,0.121243 -0.31117,0.287943 -0.588841,0.600774 -0.750989,0.998691 0,0 -1.44568,0.686628 -1.44568,0.686628 z"
   inkscape:connector-curvature="0"
   transform="translate(-2.4605135e-6,0)" /><path
   style="fill:#ffffff;fill-opacity:1;stroke:none"
   id="path3767"
   d="m 17.976162,39.630694 c 0.758093,-0.535582 1.505454,-1.086003 2.259271,-1.627547 1.098032,-0.779103 2.189686,-1.568125 3.263411,-2.380531 0.497291,-0.363142 0.953087,-0.774795 1.334702,-1.258069 0.41145,-0.555249 0.708141,-1.181599 1.00331,-1.803171 0.346015,-0.748701 0.702471,-1.493158 0.983814,-2.269022 0.285336,-0.867277 0.609452,-1.720409 0.948742,-2.56773 0.269887,-0.714443 0.690764,-1.344058 1.185438,-1.919822 0.07338,-0.07747 0.146767,-0.154937 0.220151,-0.232406 0,0 1.441876,-0.599919 1.441876,-0.599919 l 0,0 c -0.07501,0.0757 -0.150028,0.151402 -0.225042,0.227103 -0.510211,0.555972 -0.942486,1.1745 -1.224588,1.879018 -0.342525,0.844121 -0.671053,1.694131 -0.951505,2.561234 -0.265727,0.783572 -0.623992,1.528261 -0.968705,2.279556 -0.291255,0.623211 -0.577833,1.253686 -0.968364,1.822699 -0.371887,0.517985 -0.847373,0.942601 -1.362413,1.316557 -1.083617,0.811577 -2.182541,1.602827 -3.282732,2.391658 -0.727412,0.524838 -1.453931,1.053872 -2.166798,1.597175 0,0 -1.490568,0.583217 -1.490568,0.583217 z"
   inkscape:connector-curvature="0"
   transform="translate(-2.4605135e-6,0)" /><path
   style="fill:none;stroke:#eaa228;stroke-width:5.00000048;stroke-linecap:round;stroke-linejoin:miter;stroke-miterlimit:4;stroke-opacity:1;stroke-dasharray:none"
   d="M 13.038504,58.853854 C 37.333899,-3.4542248 57.139491,1.7451485 96.938542,26.188905"
   id="path3771-6"
   inkscape:connector-curvature="0"
   sodipodi:nodetypes="cc" /><path
   style="fill:none;stroke:#d5383b;stroke-width:5.00000048;stroke-linecap:round;stroke-linejoin:miter;stroke-miterlimit:4;stroke-opacity:1;stroke-dasharray:none"
   d="M 13.21706,15.689324 C 77.345072,60.127566 64.868329,72.492277 97.064806,35.564839"
   id="path3771-6-3"
   inkscape:connector-curvature="0"
   sodipodi:nodetypes="cc" /><path
   style="fill:none;stroke:#7fae00;stroke-width:5.00000048;stroke-linecap:round;stroke-linejoin:miter;stroke-miterlimit:4;stroke-opacity:1;stroke-dasharray:none"
   d="M 13.289439,38.833856 C 58.616893,5.6041703 57.522878,55.757366 96.690778,3.8420785"
   id="path3771"
   inkscape:connector-curvature="0"
   transform="translate(-2.4605135e-6,0)"
   sodipodi:nodetypes="cc" /></svg>