<?xml version="1.0" encoding="UTF-8" standalone="no"?>
<!DOCTYPE svg PUBLIC "-//W3C//DTD SVG 1.0//EN"
                         "http://www.w3.org/TR/2001/REC-SVG-20010904/DTD/svg10.dtd" 
                         [<!ATTLIST svg xmlns:xlink CDATA #FIXED "http://www.w3.org/1999/xlink">]>
<svg width="10000.000000px" viewBox="230.0 0 770.5 330 " height="330px" xmlns="http://www.w3.org/2000/svg" >
	<rect y="198" width="10000.0" x="0" height="3"/>
	<g id="level1">
		<g id="sublevel0">
			<rect height="18" width="210.5" stroke="red" y="174" x="195.0" fill="none">
				<desc>tutu</desc>
			</rect>
			<g id="titi">
				<rect y="180" width="25.5" fill="red" x="200.0" height="6"/>
				<rect y="180" width="40.5" fill="red" x="235.0" height="6"/>
				<rect y="180" width="75.5" fill="red" x="325.0" height="6"/>
				<path stroke="red" d="M 225.0 183 L 230.0 183 L 235.0 183" fill="none"/>
				<path stroke="red" d="M 275.0 183 L 300.0 183 L 325.0 183" fill="none"/>
				<desc>titi</desc>
			</g>
			<g id="bout">
				<rect y="180" width="25.5" fill="red" x="700.0" height="6"/>
				<rect y="180" width="40.5" fill="red" x="735.0" height="6"/>
				<rect y="180" width="75.5" fill="red" x="825.0" height="6"/>
				<path stroke="red" d="M 725.0 183 L 730.0 183 L 735.0 183" fill="none"/>
				<path stroke="red" d="M 775.0 183 L 800.0 183 L 825.0 183" fill="none"/>
				<desc>bout</desc>
			</g>
			<rect y="180" width="100.5" stroke="0" x="50.0" height="6">
				<desc>toto</desc>
			</rect>
		</g>
		<g id="sublevel1">
			<rect y="138" width="400.5" stroke="0" x="100.0" height="6">
				<desc>toto</desc>
			</rect>
		</g>
	</g>
	<g id="level2">
		<g id="sublevel0">
			<rect y="96.0" width="10.0" stroke="0" x="800.0" height="12.0">
				<desc>t2</desc>
			</rect>
			<rect y="60.0" width="10.0" stroke="0" x="700.0" height="48.0">
				<desc>t1</desc>
			</rect>
		</g>
	</g>
	<g id="level-1">
		<g id="sublevel0">
			<rect y="234" width="100.5" stroke="0" x="50.0" height="6">
				<desc>toto</desc>
			</rect>
		</g>
		<g id="sublevel1">
			<rect height="18" width="210.5" stroke="purple" y="270" x="195.0" fill="none">
				<desc>tutu</desc>
			</rect>
			<g id="titi">
				<rect y="276" width="25.5" fill="green" x="200.0" height="6"/>
				<rect y="276" width="40.5" fill="green" x="235.0" height="6"/>
				<rect y="276" width="75.5" fill="green" x="325.0" height="6"/>
				<path stroke="green" d="M 225.0 279 L 230.0 273 L 235.0 279" fill="none"/>
				<path stroke="green" d="M 275.0 279 L 300.0 273 L 325.0 279" fill="none"/>
				<desc>titi</desc>
			</g>
		</g>
		<g id="sublevel2">
			<g id="titi">
				<rect y="312" width="25.5" fill="purple" x="200.0" height="6"/>
				<rect y="312" width="40.5" fill="purple" x="235.0" height="6"/>
				<rect y="312" width="75.5" fill="purple" x="325.0" height="6"/>
				<path stroke="purple" d="M 225.0 315 Q230.0,309 235.0,315" fill="none"/>
				<path stroke="purple" d="M 275.0 315 Q300.0,309 325.0,315" fill="none"/>
				<desc>titi</desc>
			</g>
		</g>
	</g>
</svg>
