#define elatom_width 16
#define elatom_height 16
static char elatom_bits[] = {
  0xFF, 0xFF, 0x01, 0x00, 0x01, 0x00, 0x01, 0x00, 0x01, 0x00, 0x01, 0x00, 
  0x01, 0x00, 0xFF, 0x01, 0x01, 0x00, 0x01, 0x00, 0x01, 0x00, 0x01, 0x00, 
  0x01, 0x00, 0x01, 0x00, 0x01, 0x00, 0xFF, 0xFF, };
